<?xml version="1.0" encoding="utf-8"?>
<!-- Generator: Adobe Illustrator 24.3.0, SVG Export Plug-In . SVG Version: 6.00 Build 0)  -->
<svg version="1.1" id="Layer_1" xmlns="http://www.w3.org/2000/svg" xmlns:xlink="http://www.w3.org/1999/xlink" x="0px" y="0px"
	 viewBox="0 0 302.56 300.94" style="enable-background:new 0 0 302.56 300.94;" xml:space="preserve">
<style type="text/css">
	.st0{fill:#A7A5A5;}
	.st1{fill:#3D3E3F;}
	.st2{fill:#3D3D3E;}
	.st3{fill:#EB252E;}
	.st4{fill:#A7A5A5;stroke:#ED2024;stroke-width:2;stroke-miterlimit:10;}
</style>
<path class="st0" d="M1147.24,461.77c-10.89-1.9-21.86-3.39-32.64-5.77c-36.68-8.1-69.8-23.85-98.25-48.45
	c-45.06-38.97-73.93-87.67-82.53-146.88c-10.02-68.99,7.67-130.82,51.19-185.53c21.81-27.42,48.6-47.99,79.75-63.36
	c0.66-0.33,1.26-0.77,2.35-1.45c-1.44-4.46-2.89-8.96-4.78-14.79c10.34,6.74,19.48,12.64,28.53,18.68c0.9,0.6,1.96,2.24,1.73,3.06
	c-3.07,11.16-6.36,22.27-10.06,35.02c-2.24-5.68-3.85-9.76-5.46-13.85c-63.93,28.12-129.32,110.66-115.19,214.59
	c13.59,99.96,96.59,175.94,195.56,179.7c106.98,4.07,191.28-71.35,210.33-166.17c11.29-56.2,1.11-109.08-31.02-156.98
	c-31.9-47.56-76.04-77.35-132.87-88.52c1.85-9.62,3.6-18.73,5.57-29.02c12.14,3.5,23.82,6.25,35.08,10.22
	c37.72,13.28,70.12,34.85,96.29,65.09c30.31,35.02,50.12,75.27,57.48,121.29c0.97,6.09,1.72,12.21,2.57,18.32
	c0,12.46,0,24.91,0,37.37c-0.37,1.23-0.88,2.43-1.09,3.68c-1.82,10.75-2.98,21.65-5.46,32.25c-11.13,47.61-35.61,87.54-71.23,120.66
	c-31.8,29.58-69.35,48.12-111.93,56.43c-8.8,1.72-17.69,2.96-26.55,4.42C1172.15,461.77,1159.69,461.77,1147.24,461.77z"/>
<g>
	<path class="st1" d="M1228.47,251.22c0,0.89,0,1.64,0,2.57c-0.43,0-0.83,0-1.23,0c-3.19,0-6.37-0.01-9.56,0
		c-1.53,0-2.37,0.74-2.35,2c0.02,1.23,0.81,1.91,2.32,1.92c2.35,0.02,4.71,0,7.06,0.01c2.81,0.01,4.42,1.38,4.55,3.85
		c0.16,3.06-1.18,4.91-4.09,5.03c-4.04,0.16-8.1,0.04-12.23,0.04c0-0.86,0-1.63,0-2.52c0.41-0.02,0.81-0.05,1.21-0.05
		c3.42,0,6.83,0,10.25,0c1.02,0,1.91-0.26,2.29-1.31c0.55-1.54-0.3-2.78-1.95-2.8c-2.47-0.03-4.93,0.02-7.4-0.02
		c-2.75-0.04-4.65-1.78-4.73-4.23c-0.07-2.3,1.31-4.01,3.59-4.4c0.19-0.03,0.37-0.08,0.56-0.08
		C1220.61,251.22,1224.47,251.22,1228.47,251.22z"/>
	<path class="st1" d="M1182.01,250.99c1.6,0.24,3.28,0.25,4.79,0.76c3.38,1.14,5.03,4.36,4.57,8.35c-0.4,3.39-3.11,6.19-6.47,6.49
		c-1.84,0.16-3.72,0.2-5.56,0.03c-4.18-0.38-6.97-3.83-6.81-8.21c0.15-4.18,3.15-7.1,7.42-7.22c0.68-0.02,1.37,0,2.05,0
		C1181.99,251.12,1182,251.05,1182.01,250.99z M1181.89,264.06c0.76,0,1.52,0.03,2.28-0.01c2.56-0.12,4.41-2,4.67-4.72
		c0.24-2.51-1.25-4.89-3.65-5.29c-1.88-0.31-3.86-0.35-5.77-0.18c-2.79,0.24-4.4,2.53-4.22,5.61c0.14,2.55,2.18,4.52,4.76,4.58
		C1180.6,264.08,1181.25,264.07,1181.89,264.06z"/>
	<path class="st1" d="M1113.13,253.73c-3.39,0-6.79,0-10.27,0c0-0.85,0-1.59,0-2.46c0.38-0.03,0.77-0.09,1.17-0.09
		c3.91-0.01,7.81-0.04,11.72,0.03c0.67,0.01,1.58,0.31,1.92,0.8c0.52,0.75-0.15,1.46-0.74,2.04c-3,3-5.99,6.01-8.98,9.03
		c-0.26,0.26-0.49,0.54-0.93,1.03c3.71,0,7.17,0,10.69,0c0,0.9,0,1.64,0,2.51c-0.34,0.03-0.7,0.08-1.06,0.08
		c-4.02,0.01-8.04,0-12.06,0.01c-0.78,0-1.72-0.01-1.87-0.89c-0.1-0.57,0.26-1.41,0.7-1.87c2.86-2.98,5.79-5.89,8.71-8.82
		c0.37-0.37,0.82-0.66,1.24-0.98C1113.28,254.01,1113.2,253.87,1113.13,253.73z"/>
	<path class="st1" d="M1133.89,264.07c0.14,0.18,0.18,0.21,0.18,0.24c0.29,2.39,0.29,2.39-2.1,2.39c-3.42,0-6.83,0-10.25,0
		c-0.41,0-0.82,0-1.32,0c-0.04-0.43-0.11-0.75-0.11-1.07c-0.01-4.44,0.02-8.88-0.02-13.32c-0.01-0.92,0.3-1.15,1.18-1.14
		c3.68,0.04,7.36,0.02,11.04,0.02c1.56,0,1.56,0,1.54,1.54c0,0.3-0.03,0.6-0.06,1.02c-0.43,0.02-0.84,0.05-1.24,0.05
		c-2.96,0-5.92,0.03-8.88-0.01c-0.78-0.01-1.06,0.22-1.05,1.03c0.04,2.73,0.05,5.46,0,8.2c-0.02,0.88,0.31,1.08,1.13,1.07
		C1127.26,264.05,1130.59,264.07,1133.89,264.07z"/>
	<path class="st1" d="M1155.89,266.69c-1.02,0-1.88,0.04-2.73-0.02c-0.24-0.02-0.51-0.29-0.67-0.51c-0.33-0.46-0.66-0.95-0.86-1.47
		c-0.63-1.59-1.7-2.18-3.44-1.99c-1.57,0.17-3.17,0.04-4.78,0.04c0.44-1.81,0.75-2.06,2.44-2.07c0.95,0,1.9-0.01,2.84-0.02
		c0.07,0,0.14-0.04,0.41-0.13c-1.12-1.9-2.23-3.76-3.44-5.8c-0.35,0.55-0.6,0.91-0.82,1.28c-1.82,3.07-3.69,6.1-5.41,9.22
		c-0.67,1.21-1.46,1.71-2.78,1.49c-0.29-0.05-0.59-0.05-1.06-0.08c1.04-1.76,2.01-3.41,3-5.05c1.89-3.15,3.79-6.3,5.7-9.45
		c0.93-1.54,1.96-1.55,2.88-0.02c2.7,4.48,5.4,8.96,8.09,13.45C1155.45,265.87,1155.61,266.19,1155.89,266.69z"/>
	<path class="st1" d="M1207.76,251.27c0.86,0,1.59,0,2.41,0c0.03,0.22,0.09,0.44,0.09,0.65c0,2.88,0.03,5.76-0.03,8.64
		c-0.08,3.44-1.76,5.51-5.16,6.01c-1.96,0.29-4.02,0.34-5.98,0.08c-3.75-0.49-5.47-2.63-5.53-6.42c-0.04-2.58,0.04-5.16-0.03-7.73
		c-0.03-1.04,0.29-1.48,1.34-1.33c0.4,0.06,0.81,0.04,1.34,0.07c0,2.18-0.01,4.25,0.01,6.33c0.01,1.13,0,2.28,0.13,3.4
		c0.21,1.75,1.14,2.86,2.87,3.04c1.82,0.19,3.7,0.19,5.52,0c1.71-0.17,2.74-1.29,2.85-3.04c0.17-2.68,0.13-5.37,0.17-8.06
		C1207.77,252.4,1207.76,251.88,1207.76,251.27z"/>
	<path class="st1" d="M1160.41,251.18c0,3.85-0.01,7.52,0,11.19c0,1.9-0.18,1.68,1.71,1.69c2.87,0.01,5.74,0,8.68,0
		c0,0.9,0,1.68,0,2.49c-0.19,0.05-0.37,0.13-0.55,0.13c-3.86,0.01-7.73,0-11.59,0.02c-0.72,0.01-0.9-0.29-0.89-0.95
		c0.02-4.55,0.02-9.09,0-13.64c0-0.77,0.29-1.01,1.01-0.95C1159.26,251.22,1159.74,251.18,1160.41,251.18z"/>
	<path class="st1" d="M1133.44,257.83c0,0.68,0,1.34,0,2.05c-2.84,0-5.61,0-8.45,0c0-0.69,0-1.32,0-2.05
		C1127.79,257.83,1130.59,257.83,1133.44,257.83z"/>
	<g>
		<path class="st2" d="M1181.45,198.78c-0.14,0.13-0.28,0.26-0.43,0.38c-0.65-0.71-1.16-1.33-1.74-1.87
			c-0.21-0.2-0.66-0.39-0.86-0.29c-1.72,0.83-3.41,0.47-5.1-0.03c-4.23-1.25-8.31-0.99-12.25,1.07c-1.43,0.75-2.88,1.48-4.32,2.21
			c-0.05-0.08-0.11-0.16-0.16-0.24c1.4-0.83,2.79-1.66,4.19-2.48c3.5-2.05,7.23-2.56,11.19-1.72c1.14,0.24,2.33,0.4,3.49,0.38
			c0.56-0.01,1.08-0.13,1.53-0.35c-0.6-0.02-1.2-0.17-1.77-0.47c-0.75-0.4-1.29-1.08-1.58-1.87c-1.97-0.06-3.42-1.86-3.51-3.74
			c-0.01-0.12,0-0.23,0-0.35c-1.97,0.55-3.84,1.42-5.64,2.55c-0.63,0.4-1.3,0.82-2.01,1c-8.06,1.98-13.79,8.88-14.14,17.17
			c-0.04,1.04-0.32,1.88-0.88,2.74c-0.83,1.29-1.54,2.65-2.3,3.99c1.68-1.61,3.15-3.35,4.79-4.92c3.84-3.7,8.23-6.43,13.63-7.26
			c3.01-0.46,5.93-0.2,8.83,0.4c-0.56-1.09,0.27-2.78,1.77-2.31c1.48,0.47,2.96,0.8,4.5,1c1.3,0.17,2.88,0.79,4.17,0.62
			c0.86-0.11,1.34,0.39,1.47,1.03c0.14-0.07,0.28-0.14,0.41-0.21C1182.51,203.78,1181.8,201.37,1181.45,198.78z"/>
		<path class="st2" d="M1180.05,222.92c-0.53-0.56-0.85-1.29-0.83-2.09c0.01-0.25,0.02-0.49,0.04-0.74c0-0.04,0.01-0.08,0.01-0.12
			c-0.05-0.06-0.09-0.12-0.14-0.18c-0.12-0.19-0.23-0.37-0.33-0.57c-0.63-1.24-0.8-2.59-0.88-3.96c-0.1-1.68,1.49-3.09,3.09-3.09
			c-2.44-1.55-5.24-1.8-8.18-1.25c-5.61,1.06-10.32,3.98-14.45,7.76c-6.15,5.63-10.11,12.81-13.7,20.21
			c3.17-4.27,6.58-8.33,10.46-11.98c0.65-0.61,1.09-0.71,1.92-0.21c5.3,3.23,10.9,3.66,16.68,1.47c2.7-1.02,4.91-2.78,7.09-4.59
			C1180.52,223.42,1180.26,223.19,1180.05,222.92z"/>
		<path class="st2" d="M1152.74,223.04c-1.94-2.26-3.2-4.74-3.87-7.5c-0.1-0.42,0.06-1.08,0.35-1.38c4.2-4.28,9-7.53,15.14-8.26
			c2.44-0.29,4.88-0.3,7.33,0.41C1163.57,209.84,1157.76,215.95,1152.74,223.04z"/>
		<path class="st2" d="M1176.79,208.91c2.64-0.58,5.31-1.16,8.13-1.77c0.62,2.39,0.59,5.01-0.05,8.01
			C1183.6,210.88,1180.45,209.51,1176.79,208.91z"/>
		<path class="st3" d="M1154.43,201.47c1.46-1.25,3.72-2.89,6.82-4.14c3.79-1.52,7.17-1.78,9.27-1.77c2.99,1.37,6.05,1.12,7.51-0.45
			c1.18-1.26,1.29-2.82,1.29-2.82c0.74-5.4-9.17-3.03-9.17-3.03S1163.27,190.83,1154.43,201.47z"/>
		<path class="st3" d="M1183.17,186.98c0,0,4.99,12.2-6.39,13.59c-0.41-0.06-1.13-0.17-2.03-0.35c-1.56-0.32-2.68-0.66-2.89-0.72
			c-1.82-0.52-7.5-0.78-13.15,2.01c-3.5,1.73-5.85,4.07-7.24,5.76c-1.1,1.24-2.29,2.72-3.44,4.46c-1.53,2.31-2.64,4.51-3.44,6.41
			c1.1-1.51,2.68-3.49,4.83-5.59c2.1-2.05,4.02-3.92,6.88-5.45c1.1-0.59,6.6-3.39,13.39-2.54c3.14,0.39,4,1.24,8.48,1.6
			c4.82,0.38,6.2-0.42,6.76-0.8c2.89-1.98,3.05-6,3.07-6.61C1188.08,196.72,1187.46,195.22,1183.17,186.98z"/>
		<path class="st3" d="M1168.84,227.31c0,0,11.36-5.04,9.15-8.78c0,0-1.41-3.01-8.66-0.37c0,0-12.53,2.76-25,21.56
			c0,0,7.55-17.75,18.12-24.26c0,0,5.59-4.54,13.63-4.85c8.05-0.31,8.54,8.11,8.54,8.11s-1.6,5.4-8.91,7.12
			C1168.41,227.55,1168.84,227.31,1168.84,227.31z"/>
	</g>
</g>
<circle class="st4" cx="151.28" cy="150.47" r="100.81"/>
</svg>
